<svg width="21" height="21" viewBox="0 0 21 21" fill="none" xmlns="http://www.w3.org/2000/svg">
<path d="M20.3963 20.0727C20.3905 20.0508 19.8196 17.8593 19.5507 16.2055C19.3555 15.0052 17.853 13.9675 15.0783 13.1127L14.4008 13.6006C14.8524 13.7398 15.5065 13.9549 16.1698 14.2205C17.8514 14.8937 18.7541 15.5362 18.9295 16.1846C19.4116 17.9678 19.7581 19.8152 19.8946 20.5867C19.9255 20.594 19.9571 20.599 19.9897 20.599C20.0248 20.599 20.0606 20.5945 20.0962 20.5852C20.3206 20.5266 20.455 20.2971 20.3963 20.0727ZM4.87608 14.2205C5.59504 13.9327 6.30303 13.7041 6.75424 13.5672L6.06552 13.0785C3.91622 13.7312 1.69332 14.7072 1.44977 16.2055C1.18105 17.8584 0.609891 20.0508 0.604137 20.0727C0.545505 20.2971 0.679863 20.5266 0.904269 20.5853C0.939927 20.5946 0.975627 20.599 1.01078 20.599C1.05135 20.599 1.09104 20.5928 1.12897 20.5816H1.1522C1.28933 19.807 1.63541 17.9637 2.11643 16.1846C2.2917 15.5362 3.1944 14.8938 4.87608 14.2205ZM7.44363 9.13551C7.71894 9.81116 8.08379 10.3434 8.52744 10.7254C8.53235 10.7396 8.5379 10.7537 8.54445 10.7676C8.54747 10.7741 8.84139 11.4288 8.59006 11.9621C8.43378 12.2936 8.08173 12.5314 7.54359 12.6689C7.26563 12.74 6.97692 12.8164 6.68301 12.8986L10.6269 15.6972L14.4658 12.9326C14.1431 12.8421 13.8053 12.7539 13.4523 12.6678C12.9644 12.5488 12.6349 12.3299 12.4729 12.0169C12.189 11.4685 12.4595 10.7612 12.4657 10.7451C12.4683 10.7388 12.4701 10.7324 12.4723 10.726C12.9162 10.3439 13.2814 9.8115 13.5568 9.13547C13.9414 8.19127 14.0858 7.14832 14.1355 6.35868C14.5882 3.01535 13.3844 1.46068 13.3266 1.48328C13.2674 1.50642 12.6952 1.87673 12.4782 1.5527C12.2611 1.22867 11.7526 0.413412 11.3778 0.39027C11.0029 0.367128 10.6433 0.997296 9.38042 1.15929C8.11764 1.32128 7.72507 2.65676 7.72507 2.65676L7.18634 2.2048C7.10494 2.1365 6.97965 2.16859 6.94269 2.26822C6.4925 3.48063 6.72975 5.30465 6.84798 6.01142C6.87545 6.82282 6.99935 8.04515 7.44363 9.13551ZM12.8815 13.3701L10.6438 14.9266L8.29871 13.2953C8.79641 13.0732 9.14887 12.7467 9.34984 12.3202C9.51595 11.9678 9.54703 11.6036 9.52284 11.2886C9.82675 11.387 10.1532 11.4369 10.5002 11.4369C10.8595 11.4369 11.1965 11.383 11.5095 11.2776C11.4898 11.6178 11.5296 12.018 11.7233 12.396C11.9516 12.8416 12.3404 13.1681 12.8815 13.3701ZM7.68248 5.56459C7.95368 5.33027 8.2578 5.15866 8.64382 5.21284C9.32985 5.3091 9.77509 5.83439 10.4262 5.88068C10.4973 5.88572 10.5787 5.87837 10.6672 5.86245C10.4005 5.60066 10.0701 5.33955 9.65984 5.09456C9.56026 5.03509 9.52771 4.90619 9.58722 4.80661C9.6467 4.70703 9.77551 4.67452 9.87518 4.73399C10.4034 5.04941 10.8112 5.3918 11.1264 5.73284C11.3124 5.66715 11.51 5.58689 11.7068 5.50679C11.381 4.94882 10.8017 4.29194 9.77496 3.80512C9.67017 3.75544 9.62549 3.63019 9.67521 3.5254C9.7249 3.42057 9.85019 3.37605 9.95493 3.42561C11.1148 3.97556 11.7552 4.71799 12.108 5.34656C12.502 5.19545 12.8543 5.08961 13.0504 5.16319C13.1347 5.19478 13.2206 5.25836 13.3053 5.34119C13.3144 5.4317 13.3193 5.52343 13.3193 5.61625C13.3193 6.18031 13.2665 7.62149 12.7789 8.81858C12.2914 10.0152 11.5461 10.5969 10.5003 10.5969C9.45446 10.5969 8.70913 10.0152 8.22159 8.81858C7.73389 7.62149 7.68122 6.18035 7.68122 5.61625C7.68118 5.59894 7.68215 5.58185 7.68248 5.56459Z" fill="#7C7C7C"/>
<path d="M13.8851 13.9708L10.774 16.2112C10.7301 16.2428 10.6785 16.2587 10.6268 16.2587C10.5757 16.2587 10.5246 16.2432 10.4809 16.2122L7.27603 13.938C5.55156 14.4135 2.83512 15.4526 2.60177 16.3158C2.14275 18.0135 1.80784 19.7712 1.6629 20.5812H2.39467C2.4189 18.125 4.43494 16.1413 6.91878 16.1413C9.40258 16.1413 11.4186 18.125 11.4429 20.5812H19.3807C19.2358 19.7712 18.9008 18.0135 18.4418 16.3158C18.2135 15.4714 15.6126 14.4597 13.8851 13.9708Z" fill="#7C7C7C"/>
<path d="M6.92156 16.6958C4.78183 16.6958 3.04102 18.4366 3.04102 20.5763H3.20637C3.20637 20.5779 3.20624 20.5795 3.2062 20.5811H3.56921C3.72763 20.2084 4.02839 19.9387 4.25465 19.7769L5.56068 19.9083L5.8538 20.5811H7.90352C7.97362 20.2734 8.05796 19.8581 8.10869 19.6037L9.24551 19.2818C9.5844 19.5092 10.1883 19.9389 10.3644 20.2243C10.3761 20.3401 10.3822 20.4575 10.3822 20.5763H10.8022C10.8021 18.4366 9.06129 16.6958 6.92156 16.6958ZM9.0237 18.9081L7.91784 19.2212C7.61179 19.0443 7.14971 18.8241 6.89006 18.7034L6.76074 17.8894L7.9257 17.2648C8.32558 17.3863 8.6948 17.5784 9.01917 17.8265C9.0258 18.1512 9.03231 18.6142 9.0237 18.9081ZM5.63036 19.4932L4.42996 19.3724C4.32067 19.1286 4.19673 18.7834 4.11714 18.5525C4.38363 18.1842 4.7203 17.8702 5.10809 17.6306L6.34301 17.9369L6.47388 18.7609C6.18581 18.9738 5.83637 19.2966 5.63036 19.4932Z" fill="#7C7C7C"/>
</svg>
