<svg width="21" height="21" viewBox="0 0 21 21" fill="none" xmlns="http://www.w3.org/2000/svg">
<path d="M12.7378 7.73391C12.7702 7.68607 12.7893 7.63054 12.7934 7.57293C12.7974 7.51532 12.7862 7.45766 12.7608 7.40578C12.7344 7.35044 12.6931 7.30359 12.6415 7.27053C12.5899 7.23748 12.53 7.21954 12.4688 7.21875H8.53125C8.44423 7.21875 8.36077 7.25332 8.29923 7.31486C8.23769 7.37639 8.20312 7.45985 8.20312 7.54688V8.85938H8.85938V7.875H11.8388L11.7862 7.95047C10.5193 9.75409 9.84084 11.9052 9.84375 14.1094H10.5C10.4967 12.0406 11.1327 10.0213 12.3211 8.32781L12.7378 7.73391Z" fill="white"/>
<path d="M16.7354 12.1571V9.40741L20.4694 7.84882C20.5148 7.83027 20.5555 7.80177 20.5884 7.76543C20.6213 7.72908 20.6457 7.68582 20.6597 7.63882C20.6739 7.59137 20.6771 7.54133 20.6691 7.49246C20.6612 7.44359 20.6422 7.39715 20.6138 7.35663L16.6763 1.77851C16.6676 1.76247 16.6577 1.74711 16.6468 1.73257C16.1999 1.28431 15.6683 0.929328 15.0831 0.68824C14.4978 0.447152 13.8705 0.324767 13.2375 0.328195H12.4697C12.3827 0.328195 12.2992 0.362765 12.2377 0.424301C12.1762 0.485836 12.1416 0.569296 12.1416 0.65632V1.31257C12.1416 1.74769 11.9688 2.16499 11.6611 2.47267C11.3534 2.78034 10.9361 2.9532 10.501 2.9532C10.0659 2.9532 9.64856 2.78034 9.34088 2.47267C9.0332 2.16499 8.86035 1.74769 8.86035 1.31257V0.65632C8.86035 0.569296 8.82578 0.485836 8.76425 0.424301C8.70271 0.362765 8.61925 0.328195 8.53223 0.328195H7.76441C7.13233 0.326066 6.5061 0.449391 5.92202 0.691022C5.33793 0.932653 4.8076 1.28779 4.36176 1.73585C4.35077 1.7504 4.3409 1.76575 4.33223 1.78179L0.394726 7.35991C0.366275 7.40044 0.347363 7.44687 0.339407 7.49574C0.331452 7.54461 0.334659 7.59465 0.348789 7.6421C0.3628 7.6891 0.387169 7.73237 0.420104 7.76871C0.453039 7.80505 0.493701 7.83355 0.539101 7.8521L4.2666 9.40741V19.0313C4.2666 19.1183 4.30117 19.2018 4.36271 19.2633C4.42424 19.3249 4.5077 19.3594 4.59473 19.3594H13.336C13.8144 19.8596 14.4072 20.2358 15.0635 20.4556C15.7197 20.6755 16.4196 20.7323 17.1027 20.6213C17.7858 20.5103 18.4317 20.2348 18.9845 19.8184C19.5374 19.4021 19.9806 18.8575 20.276 18.2316C20.5714 17.6058 20.7101 16.9174 20.6801 16.226C20.6501 15.5346 20.4523 14.8608 20.1038 14.2629C19.7553 13.665 19.2665 13.1608 18.6797 12.7939C18.0928 12.4271 17.4255 12.2085 16.7354 12.1571ZM19.7935 15.1693L18.1529 15.4055L16.7354 14.2801V12.8134C17.4158 12.8763 18.0645 13.1311 18.6058 13.5481C19.1472 13.9652 19.5591 14.5274 19.7935 15.1693ZM17.1685 17.3907H15.6591L15.1505 15.8649L16.4072 14.8576L17.6639 15.8649L17.1685 17.3907ZM12.7979 16.4063C12.7986 16.2061 12.8162 16.0064 12.8504 15.8091L14.5205 16.0454L15.0554 17.6532L13.9463 19.0313C13.5846 18.6963 13.2959 18.2903 13.0983 17.8386C12.9007 17.3869 12.7984 16.8993 12.7979 16.4063ZM16.0791 12.1407C15.6269 12.1796 15.1839 12.2903 14.7666 12.4688V11.9734C14.7645 10.5732 15.226 9.21174 16.0791 8.10148V12.1407ZM16.0791 12.7969V14.2637L14.6714 15.4219L13.0308 15.1857C13.262 14.5421 13.6712 13.9774 14.2109 13.5574C14.7506 13.1374 15.3985 12.8794 16.0791 12.8134V12.7969ZM16.7354 8.69538V3.00241L19.8394 7.40257L16.7354 8.69538ZM1.16254 7.40257L4.2666 3.00241V8.69538L1.16254 7.40257ZM4.92285 8.10148C5.77593 9.21174 6.23744 10.5732 6.23535 11.9734V18.7032H4.92285V8.10148ZM6.8916 18.7032V11.9734C6.89492 10.1528 6.18872 8.40258 4.92285 7.09413V2.10663C5.69129 1.38234 6.70844 0.980648 7.76441 0.984445H8.2041V1.31257C8.2041 1.92174 8.44609 2.50596 8.87684 2.93671C9.30759 3.36745 9.89181 3.60945 10.501 3.60945C11.1101 3.60945 11.6944 3.36745 12.1251 2.93671C12.5559 2.50596 12.7979 1.92174 12.7979 1.31257V0.984445H13.2375C14.2935 0.980648 15.3107 1.38234 16.0791 2.10663V7.09413C14.8132 8.40258 14.107 10.1528 14.1104 11.9734V12.8166C13.1592 13.4265 12.4888 14.3889 12.2464 15.4925C12.004 16.5961 12.2094 17.7509 12.8175 18.7032H6.8916ZM14.4647 19.4415L15.5804 18.0469H17.221L18.3366 19.4415C17.758 19.8162 17.0834 20.0156 16.3941 20.0156C15.7048 20.0156 15.0302 19.8162 14.4516 19.4415H14.4647ZM18.8682 19.0313L17.7591 17.6532L18.2939 16.0454L19.9641 15.8091C20.065 16.395 20.0175 16.9968 19.8261 17.5597C19.6347 18.1225 19.3053 18.6284 18.8682 19.0313Z" fill="white"/>
</svg>
